<?xml version="1.0" ?><svg viewBox="0 0 64 64" xmlns="http://www.w3.org/2000/svg"><title/><g id="Hospital"><path d="M60,59H58V8a1,1,0,0,0-1-1H7A1,1,0,0,0,6,8V59H4a1,1,0,0,0,0,2H60a1,1,0,0,0,0-2ZM27,59V47H37V59Zm12,0V46a1,1,0,0,0-1-1H26a1,1,0,0,0-1,1V59H8V9H56V59Z"/><path d="M30,51.5a1,1,0,0,0-1,1v1a1,1,0,0,0,2,0v-1A1,1,0,0,0,30,51.5Z"/><path d="M34,51.5a1,1,0,0,0-1,1v1a1,1,0,0,0,2,0v-1A1,1,0,0,0,34,51.5Z"/><path d="M38,15H35V12H29v3H26v6h3v3h6V21h3Zm-2,4H33v3H31V19H28V17h3V14h2v3h3Z"/><path d="M25,27H21a1,1,0,0,0-1,1v4a1,1,0,0,0,1,1h4a1,1,0,0,0,1-1V28A1,1,0,0,0,25,27Zm-1,4H22V29h2Z"/><path d="M43,27H39a1,1,0,0,0-1,1v4a1,1,0,0,0,1,1h4a1,1,0,0,0,1-1V28A1,1,0,0,0,43,27Zm-1,4H40V29h2Z"/><path d="M25,36H21a1,1,0,0,0-1,1v4a1,1,0,0,0,1,1h4a1,1,0,0,0,1-1V37A1,1,0,0,0,25,36Zm-1,4H22V38h2Z"/><path d="M16,27H12a1,1,0,0,0-1,1v4a1,1,0,0,0,1,1h4a1,1,0,0,0,1-1V28A1,1,0,0,0,16,27Zm-1,4H13V29h2Z"/><path d="M16,36H12a1,1,0,0,0-1,1v4a1,1,0,0,0,1,1h4a1,1,0,0,0,1-1V37A1,1,0,0,0,16,36Zm-1,4H13V38h2Z"/><path d="M43,36H39a1,1,0,0,0-1,1v4a1,1,0,0,0,1,1h4a1,1,0,0,0,1-1V37A1,1,0,0,0,43,36Zm-1,4H40V38h2Z"/><path d="M52,27H48a1,1,0,0,0-1,1v4a1,1,0,0,0,1,1h4a1,1,0,0,0,1-1V28A1,1,0,0,0,52,27Zm-1,4H49V29h2Z"/><path d="M52,36H48a1,1,0,0,0-1,1v4a1,1,0,0,0,1,1h4a1,1,0,0,0,1-1V37A1,1,0,0,0,52,36Zm-1,4H49V38h2Z"/></g></svg>