<?xml version="1.0" ?><svg id="Layer_1" style="enable-background:new 0 0 1024 1024;" version="1.1" viewBox="0 0 1024 1024" xml:space="preserve" xmlns="http://www.w3.org/2000/svg" xmlns:xlink="http://www.w3.org/1999/xlink"><style type="text/css">
	.st0{display:none;}
	.st1{display:inline;}
</style><g id="XMLID_70_"><path d="M512,823.4c-31.5,0-63.1-7.3-91.8-21.8l-104.6-52.9c-24.3-12.3-44.6-31-58.9-54.2   c-14.3-23.2-21.8-49.8-21.8-77V361.9L345,340.6c20.8-4,40.5-11.5,58.8-22.1l65.6-38.3c26.2-15.3,58.9-15.3,85.1,0l59.5,34.7   c22.3,13,46.5,22.2,71.9,27.1l103.1,20v255.6c0,27.2-7.5,53.8-21.8,77c-14.3,23.2-34.6,41.9-58.9,54.2l-104.6,52.9   C575.1,816.2,543.5,823.4,512,823.4z M274.9,394.9v222.6c0,40.6,22.5,77.2,58.7,95.5l104.6,52.9c46.2,23.4,101.4,23.4,147.6,0   l104.6-52.9c36.2-18.3,58.7-54.9,58.7-95.5V394.9l-70.7-13.7c-29.8-5.8-58.3-16.5-84.5-31.8l-59.5-34.7c-13.8-8.1-31-8.1-44.8,0   L424,353c-22.2,12.9-46.2,22-71.4,26.9L274.9,394.9z" id="XMLID_59_"/><path d="M274.9,666.8l-83.1-62.2c-32.1-24-58.6-55.7-76.5-91.5c-18-35.9-27.5-76-27.5-116.1v-68.7   c0-25.2,14.5-46.8,37.8-56.3c23.3-9.5,48.8-4.3,66.4,13.7h0l82.9,84.5V666.8z M149,307.5c-3.8,0-6.8,1-8.3,1.6   c-3,1.2-12.9,6.3-12.9,19.3V397c0,68.8,32.9,134.4,87.9,175.6l19.2,14.3V386.6l-71.4-72.8C158.6,308.8,153.3,307.5,149,307.5z" id="XMLID_56_"/><path d="M749.1,666.8V370.3l82.9-84.5c17.6-18,43.1-23.2,66.4-13.7c23.3,9.5,37.8,31.1,37.8,56.3V397   c0,40.1-9.5,80.2-27.4,116.1s-44.4,67.5-76.5,91.5L749.1,666.8z M789.1,386.6v200.3l19.2-14.3c55.1-41.2,87.9-106.8,87.9-175.6   v-68.7c0-13-9.9-18-12.9-19.3c-3-1.2-13.6-4.6-22.7,4.7L789.1,386.6z" id="XMLID_53_"/><path d="M238.7,218.1c-37,0-67.1-30.1-67.1-67.1s30.1-67.1,67.1-67.1s67.1,30.1,67.1,67.1S275.7,218.1,238.7,218.1z    M238.7,123.9c-14.9,0-27.1,12.2-27.1,27.1c0,14.9,12.2,27.1,27.1,27.1c14.9,0,27.1-12.2,27.1-27.1   C265.8,136,253.7,123.9,238.7,123.9z" id="XMLID_50_"/><path d="M757.5,940.1c-37,0-67.1-30.1-67.1-67.1s30.1-67.1,67.1-67.1s67.1,30.1,67.1,67.1S794.5,940.1,757.5,940.1z    M757.5,845.9c-14.9,0-27.1,12.2-27.1,27.1s12.2,27.1,27.1,27.1c14.9,0,27.1-12.2,27.1-27.1S772.4,845.9,757.5,845.9z" id="XMLID_47_"/><path d="M807.9,209.9c-27.6,0-50-22.4-50-50s22.4-50,50-50s50,22.4,50,50S835.5,209.9,807.9,209.9z M807.9,150   c-5.5,0-10,4.5-10,10c0,5.5,4.5,10,10,10s10-4.5,10-10C817.9,154.5,813.4,150,807.9,150z" id="XMLID_44_"/><path d="M275.9,932c-27.6,0-50-22.4-50-50s22.4-50,50-50s50,22.4,50,50S303.4,932,275.9,932z M275.9,872.1   c-5.5,0-10,4.5-10,10s4.5,10,10,10s10-4.5,10-10S281.4,872.1,275.9,872.1z" id="XMLID_41_"/><path d="M129.8,709c-16,0-29-13-29-29s13-29,29-29s29,13,29,29S145.8,709,129.8,709z M129.8,669   c-6.1,0-11,4.9-11,11s4.9,11,11,11s11-4.9,11-11S135.9,669,129.8,669z" id="XMLID_38_"/><path d="M907.2,719c-16,0-29-13-29-29s13-29,29-29s29,13,29,29S923.2,719,907.2,719z M907.2,679   c-6.1,0-11,4.9-11,11s4.9,11,11,11s11-4.9,11-11S913.3,679,907.2,679z" id="XMLID_35_"/><path d="M546.9,205c-16,0-29-13-29-29s13-29,29-29s29,13,29,29S562.9,205,546.9,205z M546.9,165   c-6.1,0-11,4.9-11,11s4.9,11,11,11s11-4.9,11-11S552.9,165,546.9,165z" id="XMLID_32_"/><rect height="40" id="XMLID_31_" width="35.7" x="420.1" y="622.3"/><rect height="40" id="XMLID_30_" width="35.7" x="494.2" y="622.3"/><rect height="40" id="XMLID_29_" width="35.7" x="568.3" y="622.3"/><rect height="40" id="XMLID_28_" width="35.7" x="457.1" y="689.4"/><rect height="40" id="XMLID_27_" width="35.7" x="531.2" y="689.4"/><g class="st0" id="XMLID_74_"><path class="st1" d="M451.9,947.1c-54.7,0-106.6-17.6-150.1-50.8l-57.2-43.7c-35.1-26.8-64.1-62-83.7-101.6    c-19.6-39.6-30-83.9-30-128.1V421c0-5.5,2.3-10.8,6.3-14.6c4-3.8,9.4-5.7,14.9-5.4c1,0.1,1.6,0.1,1.7,0.1c0.2,0,0.4,0,0.5,0    c217.8,15.3,322.3-71.9,371.6-147.7c4-6.1,11-9.6,18.2-9c19.9,1.4,39.6,3.4,58.6,5.7c16,2,24.1,4.9,32.7,8    c4.8,1.7,9.8,3.6,17.2,5.5c52,13.4,105.3,70,118.8,126.2c0.2,0.7,0.3,1.5,0.4,2.2c0.5,4.3,0.8,8.7,0.8,12.9v179.8    c0,5.5-2.3,10.7-6.3,14.5s-9.4,5.8-14.8,5.4c-32.6-1.8-64.6,10.4-87.7,33.5c-44.8,44.8-44.8,117.8,0,162.6c3.1,3.1,6.3,6,9.7,8.7    c4.6,3.7,7.4,9.2,7.5,15.1c0.1,5.9-2.3,11.6-6.8,15.5c-4.8,4.2-9.9,8.5-15.3,12.6L602,896.4C558.6,929.6,506.7,947.1,451.9,947.1z     M171.1,442.2V623c0,77.1,36.6,151.1,97.9,197.9l57.2,43.7c74.1,56.6,177.5,56.6,251.6,0l53.1-40.6    c-55.5-60.7-53.9-155.3,4.9-214.1c26.1-26.1,60.6-41.9,97-44.9V404.9c0-2.3-0.1-4.6-0.4-6.9c-10.5-41.5-52.1-86-89.6-95.7    c-9.3-2.4-15.7-4.7-20.9-6.6c-7.5-2.7-12.4-4.5-23.9-5.9c-14.7-1.8-29.8-3.3-45.1-4.6c-29.7,42.4-68.2,77-114.7,102.9    C373,424.5,294,442.9,202.8,442.9C192.4,442.9,181.8,442.6,171.1,442.2z" id="XMLID_24_"/><path class="st1" d="M794.9,466.8c-3.4,0-6.8-0.9-9.9-2.6c-0.4-0.2-10.2-5.8-20.4-12.5    c-19.2-12.6-26.8-20.4-29.2-29.6c-0.4-1.6-0.6-3.3-0.6-4.9v-1c0-5.3-0.7-11-2.2-16.9c-10-41.8-52.1-87.1-89.9-96.8    c-9.3-2.4-15.7-4.7-20.9-6.6c-7.5-2.7-12.4-4.5-23.9-5.9c-14.7-1.8-29.8-3.3-45.1-4.6c-29.7,42.4-68.2,77-114.7,102.9    c-77,43-173.3,60.8-286.3,52.9c-0.3,0-1-0.1-2-0.1c-6.9-0.4-23.3-2-53.9-8.1c-9.8-2-16.7-10.9-16-20.9    c0.1-2.1,3.7-53.2,24.2-115.2c12.1-36.6,27.6-69.5,46.2-97.8c23.6-35.9,52.1-64.4,84.9-84.7c81-50.1,185.8-49.9,311.5,0.6    c13.9-6.6,33-10.5,53.7-10.6c21.3-0.1,54.1,3.6,89,22.1c41,21.7,72.8,56.8,94.4,104.6c25.5,56.4,36,129.4,31,216.9    c-0.4,6.9-4.3,13.1-10.4,16.4C801.5,466,798.2,466.8,794.9,466.8z M774.7,409.7c0.4,0.4,0.9,0.7,1.4,1.1    c1.3-158.1-55.5-222.8-105.3-249.1c-50.7-26.8-99.5-17.1-110.3-8.8c-5.7,4.4-13.3,5.4-19.9,2.6c-117.3-49-213-51.5-284.3-7.3    c-100.2,62-127.7,199.9-134.4,248.7c18.1,3.1,27.4,3.8,30.3,4c1.2,0.1,1.8,0.1,1.9,0.1c0.2,0,0.3,0,0.5,0    c217.8,15.3,322.3-71.9,371.6-147.7c4-6.1,11-9.6,18.2-9c19.9,1.4,39.6,3.4,58.6,5.7c16,2,24.1,4.9,32.7,8    c4.8,1.7,9.8,3.6,17.2,5.5c52,13.4,105.3,70,118.8,126.2C773.2,396.5,774.2,403.2,774.7,409.7z" id="XMLID_21_"/><path class="st1" d="M453.6,810.8c-13.9,0-26.4-2.2-37.1-5.3c-32.5-9.2-53.9-27.8-54.8-28.5l13.2-15.1l13.1-15.1    c2.5,2.2,63,52.8,128.4-0.4l25.2,31C510.3,802.9,479.6,810.8,453.6,810.8z" id="XMLID_20_"/><path class="st1" d="M631.4,542c-55.8-52.8-107.4-19.4-109.6-18l0.1-0.1l-22.7-32.9c2.1-1.4,21.3-14.2,50.3-17.9    c27.1-3.4,68.1,0.7,109.4,39.8L631.4,542z" id="XMLID_19_"/><path class="st1" d="M272.5,542L245,513c41.3-39.1,82.3-43.2,109.4-39.8c29,3.7,48.2,16.4,50.3,17.9L381.9,524    l0.1,0.1C379.9,522.6,328.3,489.2,272.5,542z" id="XMLID_18_"/><path class="st1" d="M452,715.6c-17.4,0-33.9-7.5-45.4-20.6s-16.7-30.4-14.4-47.7l39.7,5.2    c-0.8,5.9,1,11.6,4.9,16.1s9.3,6.9,15.3,6.9s11.4-2.5,15.3-6.9s5.6-10.2,4.9-16.1l39.7-5.2c2.3,17.2-3,34.6-14.4,47.7    C485.9,708.1,469.3,715.6,452,715.6z" id="XMLID_17_"/><path class="st1" d="M745.3,874.6c-34,0-68.1-11.2-96.5-33.8c-4.5-3.6-8.9-7.5-13-11.6    c-60.4-60.4-60.4-158.8,0-219.2c31.1-31.1,74.1-47.6,118.1-45.2c38.1,2.1,74,18.1,101.1,45.2c60.4,60.4,60.4,158.8,0,219.2v0    C824.8,859.3,785.2,874.6,745.3,874.6z M745.4,604.5c-30.4,0-59.8,12.1-81.4,33.7c-44.8,44.8-44.8,117.8,0,162.6    c3.1,3.1,6.3,6,9.7,8.7c45.7,36.5,111.5,32.8,152.9-8.7c44.8-44.8,44.8-117.8,0-162.6c-20.1-20.1-46.7-32-75-33.5    C749.6,604.6,747.5,604.5,745.4,604.5z" id="XMLID_14_"/><path class="st1" d="M913.2,804c-17.4,0-34.4-7.4-49.7-21.9c-12.6-11.9-19.8-24.5-20.6-25.9l17.5-9.7l17.4-9.8    c0.2,0.3,18.4,31.2,39.8,26.9l7.8,39.2C921.4,803.6,917.3,804,913.2,804z" id="XMLID_13_"/><path class="st1" d="M767.5,646.3l-19.8-34.7l9.9,17.4l-10-17.3c11.5-6.6,52.7-36.1,44.8-59.5l37.9-12.6    c6,17.9,6.3,46.1-26.2,78.6C787.2,635,768.3,645.9,767.5,646.3z" id="XMLID_12_"/><path class="st1" d="M664.7,622.8c-2.9-2.2-28.2-22.3-27.9-50c0.1-10.9,4.2-26.7,23.3-40.7l23.7,32.3    c-2.6,1.9-6.9,5.6-7,8.9c-0.1,5.6,7.9,14.6,12.2,17.9L664.7,622.8z" id="XMLID_11_"/><path class="st1" d="M716.9,756.6l-26.3-30.1c5.2-4.5,7.7-8.7,7.4-12.3c-0.6-8.2-12.1-19.4-19.7-24.3l21.5-33.7    c3.6,2.3,35.7,23.6,38.1,54.9C738.7,722.7,735.8,740,716.9,756.6z" id="XMLID_10_"/><path class="st1" d="M854.7,701.8l-32.5-23.3c2.2-3.1,22.4-30.1,55.4-34.7c14-1.9,35.6-0.3,59,18.5l-25,31.2    c-10.1-8-19.4-11.3-28.5-10.1C866.8,685.7,854.8,701.6,854.7,701.8z" id="XMLID_9_"/><path class="st1" d="M636.9,726.7c-7.7-4.8-33.7-17.5-51.1-13.2c-6,1.5-10.5,5.1-14,11.2l-34.6-20    c9-15.5,22.5-25.9,39.1-30c37-9.1,77.4,15.3,81.8,18.2L636.9,726.7l10.6-17L636.9,726.7z" id="XMLID_8_"/><path class="st1" d="M610.7,863.8L601,825c24.2-6,28.9-50.3,29-50.8l39.9,3.3C669.6,780.5,663.2,850.6,610.7,863.8z    " id="XMLID_7_"/><path class="st1" d="M723.9,917.2c-27.8-27.8-33-56-32.4-74.7c0.6-20.5,8.1-34.6,9-36.1l34.9,19.5l0.1-0.2    c0,0.1-4.1,8.1-4.1,19.7c0.1,15.2,7,29.9,20.8,43.6L723.9,917.2z" id="XMLID_6_"/><path class="st1" d="M843.5,883.5l-39.7-5c1.9-15.5-0.3-24.6-2.6-29.5c-1-2.1-1.9-3.3-2.3-3.7c0,0-0.1-0.1-0.1-0.1    c0,0,0,0,0,0c0,0,0.2,0.2,0.3,0.2c0.1,0.1,0.7,0.6,0.7,0.6l23.3-32.5C825.8,815.4,849.7,834,843.5,883.5z" id="XMLID_5_"/><path class="st1" d="M775.3,793.6c-3.2-2.2-19.2-14.4-21-34.1c-0.7-8.4,1-21,13.4-33.4c4.8-4.8,5.1-8.5,4.8-11.2    c-0.3-2.3-1.2-4.4-1.2-4.5l33.6-21.7c7.7,11.9,15.8,41-8.8,65.7c-0.9,0.9-1.4,1.6-1.6,2c0.6,1.3,2.5,3.4,4.1,4.6l-0.2-0.2    L775.3,793.6z" id="XMLID_4_"/></g><rect height="165" id="XMLID_3_" width="40" x="492" y="396.6"/><rect height="40" id="XMLID_2_" width="165" x="429.5" y="459.1"/></g></svg>