<?xml version="1.0" ?><svg id="Icons" viewBox="0 0 60 60" xmlns="http://www.w3.org/2000/svg"><path d="M30.467,23.117a.993.993,0,0,1-.707-.293L27.5,20.565,25.107,22.96c.239.246.454.493.664.736a5.714,5.714,0,0,0,6.668,1.849,7.694,7.694,0,0,1,8.809,2.441,6.843,6.843,0,0,0,1.376,1.321l4.224-4.224-5.966-5.966-5.966-5.966-2.293,2.292L34.882,17.7a1,1,0,1,1-1.414,1.414l-2.259-2.258-2.293,2.293,2.258,2.259a1,1,0,0,1-.707,1.707Z"/><path d="M14.9,40.585l-.137.137a2,2,0,0,0,0,2.829l1.688,1.688a2.048,2.048,0,0,0,2.829,0l.137-.136Z"/><path d="M23.76,28.824a1,1,0,1,1-1.414,1.414L20.087,27.98l-2.293,2.293,2.259,2.259a1,1,0,1,1-1.414,1.414L16.38,31.687l-.947.948a4,4,0,0,0,0,5.657l.171.172L21.536,44.4l.171.17a4.1,4.1,0,0,0,5.657,0L41.2,30.73a9.8,9.8,0,0,1-1.467-1.437,5.709,5.709,0,0,0-6.673-1.847,7.694,7.694,0,0,1-8.8-2.44c-.189-.218-.374-.429-.569-.63l-2.19,2.19Z"/><path d="M50.486,4.994,43,12.478l1.552,1.551,5.224-5.224a1,1,0,1,1,1.414,1.414l-5.224,5.224L47.521,17,55,9.512Z"/><path d="M52.747,1.325a1.09,1.09,0,0,0-1.554,0,1.089,1.089,0,0,0,0,1.541L57.129,8.8a1.1,1.1,0,0,0,1.543,0l0,0a1.084,1.084,0,0,0,0-1.546Z"/><path d="M52.677,26.669l.137-.138a1,1,0,0,0,0-1.413L34.882,7.185a1,1,0,0,0-1.414,0l-.138.137a1,1,0,0,0,0,1.414l2.293,2.293h0L42.3,17.7l8.966,8.966A1,1,0,0,0,52.677,26.669Z"/><path d="M2.71,58.71,14.9,46.51,13.49,45.1,1.29,57.29a1.008,1.008,0,0,0,0,1.42,1.014,1.014,0,0,0,1.42,0Z"/></svg>