<?xml version="1.0" ?><!DOCTYPE svg  PUBLIC '-//W3C//DTD SVG 1.1//EN'  'http://www.w3.org/Graphics/SVG/1.1/DTD/svg11.dtd'><svg enable-background="new 0 0 512 512" height="512px" id="Skull" version="1.1" viewBox="0 0 512 512" width="512px" xml:space="preserve" xmlns="http://www.w3.org/2000/svg" xmlns:xlink="http://www.w3.org/1999/xlink"><g><g><path d="M56.957,137.795c10.422,0.37,20.661-3.246,28.54-9.987l16.067,16.067c0.977,0.976,2.256,1.464,3.536,1.464    s2.559-0.488,3.536-1.464c1.953-1.953,1.953-5.119,0-7.071l-19.55-19.55c-0.974-0.974-2.319-1.513-3.682-1.462    c-1.376,0.041-2.675,0.646-3.59,1.675c-0.334,0.376-0.686,0.744-1.04,1.097c-6.268,6.268-14.6,9.558-23.466,9.237    c-8.852-0.311-16.943-4.186-22.783-10.91c-10.193-11.738-10.227-29.466-0.079-41.237c6.299-7.307,15.419-11.304,25.049-10.998    c1.381,0.056,2.722-0.484,3.7-1.461c0.978-0.978,1.507-2.318,1.461-3.7c-0.317-9.619,3.691-18.749,10.998-25.048    c11.771-10.149,29.5-10.114,41.237,0.078c6.725,5.84,10.599,13.932,10.91,22.783c0.312,8.864-2.969,17.198-9.239,23.468    c-0.351,0.352-0.719,0.703-1.095,1.038c-1.029,0.915-1.635,2.214-1.675,3.59c-0.04,1.376,0.489,2.708,1.462,3.682l15.55,15.55    c1.953,1.952,5.118,1.952,7.071,0c1.953-1.953,1.953-5.119,0-7.071l-12.067-12.067c6.742-7.88,10.354-18.111,9.987-28.54    c-0.409-11.655-5.504-22.302-14.347-29.982c-15.463-13.428-38.817-13.472-54.324-0.102c-8.325,7.178-13.394,17.154-14.328,27.923    c-10.77,0.934-20.746,6.003-27.924,14.329c-13.369,15.507-13.325,38.861,0.103,54.324    C34.655,132.291,45.302,137.386,56.957,137.795z"/><path d="M349.637,327.879c0.103-0.014,0.204-0.033,0.307-0.047c0.49-0.072,0.979-0.143,1.47-0.225    c0.087-0.01,0.174-0.021,0.26-0.037c0.705-0.119,1.398-0.248,2.112-0.395c0.549-0.113,1.098-0.229,1.638-0.352    c0.082-0.018,0.156-0.035,0.229-0.053c0.318-0.074,0.641-0.156,0.967-0.24c0.051-0.012,0.103-0.023,0.154-0.037h0.001    c0.005-0.002,0.009-0.002,0.013-0.004l1.137-0.295c10.904-2.969,20.906-8.781,28.925-16.813c1.951-1.953,1.948-5.119-0.005-7.07    c-1.954-1.951-5.119-1.949-7.071,0.006c-6.788,6.797-15.251,11.717-24.417,14.213l-1.067,0.275c-0.308,0.08-0.616,0.16-0.923,0.23    c-0.002,0-0.004,0-0.006,0c-0.023,0.006-0.049,0.012-0.074,0.018c-0.019,0.004-0.037,0.01-0.056,0.014    c-0.485,0.111-0.979,0.213-1.452,0.313c-0.546,0.109-1.092,0.211-1.645,0.307c-0.057,0.008-0.113,0.014-0.169,0.023    c-0.601,0.102-1.2,0.193-1.805,0.277c-0.435,0.061-0.86,0.113-1.294,0.156c-0.056,0.006-0.176,0.02-0.23,0.025    c-0.08,0.008-0.16,0.018-0.24,0.027c-0.244,0.021-0.488,0.045-0.734,0.061c-0.029,0.002-0.053,0.006-0.082,0.008l-1.51,0.111    c-0.27,0.023-0.53,0.037-0.8,0.045c-0.054,0.002-0.106,0.004-0.161,0.008c-0.266,0.016-0.531,0.023-0.798,0.031h-0.006    l-1.603,0.02c-2.738,0.033-4.94,2.262-4.94,5v73.57c0,16.508-13.436,29.939-29.95,29.939h-64.76c-2.761,0-5,2.238-5,5s2.239,5,5,5    h64.76c22.029,0,39.95-17.916,39.95-39.939v-68.771l0.502-0.039c0.356-0.021,0.712-0.055,1.112-0.092    c0.065-0.006,0.196-0.02,0.262-0.027c0.096-0.01,0.191-0.02,0.286-0.031c0.543-0.057,1.075-0.121,1.616-0.197L349.637,327.879z"/><path d="M485.026,388.563c-7.68-8.846-18.326-13.945-29.977-14.355c-10.439-0.369-20.662,3.244-28.543,9.99l-49.916-49.918    c-1.953-1.951-5.119-1.951-7.072,0c-1.952,1.953-1.952,5.119,0,7.072l53.396,53.395c0.966,0.965,2.279,1.488,3.651,1.463    c1.367-0.031,2.66-0.621,3.58-1.631c0.357-0.393,0.715-0.768,1.09-1.143c6.268-6.268,14.604-9.551,23.461-9.234    c8.848,0.311,16.938,4.189,22.779,10.92c10.197,11.734,10.23,29.457,0.077,41.225c-6.306,7.314-15.435,11.324-25.044,10.998    c-1.383-0.045-2.726,0.482-3.705,1.461c-0.979,0.98-1.508,2.32-1.461,3.705c0.326,9.609-3.684,18.738-10.999,25.045    c-11.768,10.152-29.489,10.119-41.227-0.08c-6.728-5.84-10.605-13.93-10.917-22.777c-0.313-8.861,2.967-17.193,9.235-23.461    c0.374-0.375,0.749-0.732,1.142-1.09c1.01-0.92,1.6-2.213,1.631-3.58c0.032-1.365-0.496-2.686-1.463-3.652l-36.859-36.859    c-1.953-1.951-5.119-1.951-7.072,0c-1.952,1.953-1.952,5.119,0,7.072l33.383,33.381c-6.745,7.881-10.358,18.113-9.99,28.543    c0.41,11.65,5.51,22.297,14.354,29.975c7.752,6.736,17.486,10.105,27.221,10.105c9.682,0,19.365-3.334,27.094-10.004    c8.334-7.184,13.403-17.158,14.332-27.92c10.763-0.93,20.736-5.998,27.92-14.33C498.503,427.373,498.46,404.021,485.026,388.563z"/><path d="M143.874,396.295l-26.62,26.619c-0.966,0.967-1.495,2.285-1.463,3.65c0.031,1.367,0.62,2.66,1.629,3.58    c0.378,0.346,0.75,0.689,1.143,1.092c6.268,6.268,9.548,14.6,9.237,23.461c-0.311,8.848-4.186,16.938-10.91,22.777    c-11.739,10.193-29.467,10.227-41.237,0.08c-7.307-6.301-11.315-15.43-10.998-25.049c0.046-1.385-0.484-2.725-1.463-3.703    c-0.979-0.979-2.313-1.51-3.703-1.459c-9.603,0.32-18.737-3.684-25.045-11c-10.153-11.768-10.119-29.488,0.081-41.227    c5.84-6.727,13.931-10.605,22.782-10.916c8.868-0.309,17.198,2.967,23.428,9.195c0.364,0.373,0.729,0.744,1.076,1.135    c0.915,1.029,2.214,1.637,3.59,1.678c1.384,0.033,2.709-0.488,3.684-1.463l49.405-49.404c1.953-1.953,1.953-5.119,0-7.072    c-1.953-1.951-5.118-1.951-7.071,0l-45.922,45.924c-7.88-6.744-18.115-10.359-28.542-9.986    c-11.655,0.41-22.302,5.51-29.979,14.354c-13.436,15.461-13.479,38.811-0.103,54.314c7.185,8.334,17.16,13.404,27.923,14.332    c0.935,10.77,6.004,20.744,14.329,27.92c7.732,6.668,17.416,9.998,27.099,9.998c9.736,0,19.472-3.367,27.225-10.1    c8.842-7.68,13.937-18.326,14.346-29.977c0.367-10.443-3.256-20.689-9.989-28.543l23.14-23.141c1.953-1.951,1.953-5.117,0-7.07    C148.992,394.342,145.827,394.342,143.874,396.295z"/><path d="M376.591,107.241l18.154-18.155c0.975-0.974,1.504-2.307,1.463-3.683c-0.041-1.377-0.648-2.676-1.678-3.591    c-0.39-0.346-0.762-0.711-1.095-1.038c-6.269-6.269-9.549-14.602-9.235-23.466c0.312-8.851,4.189-16.942,10.92-22.784    c11.734-10.197,29.456-10.231,41.225-0.078c7.314,6.307,11.324,15.435,10.998,25.044c-0.047,1.383,0.481,2.724,1.46,3.703    c0.979,0.979,2.325,1.517,3.702,1.463c9.639-0.313,18.749,3.691,25.048,10.998c10.148,11.771,10.114,29.499-0.077,41.237    c-5.842,6.725-13.931,10.599-22.779,10.91c-8.858,0.314-17.193-2.969-23.502-9.278c-0.361-0.353-0.705-0.725-1.051-1.103    c-0.92-1.009-2.213-1.598-3.579-1.629c-1.364-0.034-2.685,0.497-3.65,1.463l-21.55,21.55c-1.953,1.953-1.953,5.119,0,7.071    c0.977,0.976,2.256,1.464,3.535,1.464c1.28,0,2.56-0.488,3.536-1.464l18.071-18.072c7.881,6.745,18.118,10.37,28.541,9.992    c11.65-0.409,22.297-5.504,29.978-14.347c13.427-15.463,13.47-38.817,0.101-54.324c-7.176-8.324-17.15-13.394-27.92-14.328    c-0.928-10.763-5.998-20.739-14.33-27.922c-15.504-13.378-38.855-13.334-54.313,0.1c-8.847,7.679-13.945,18.326-14.356,29.981    c-0.367,10.416,3.232,20.634,9.988,28.54l-14.676,14.674c-1.952,1.953-1.952,5.119,0,7.071    C371.472,109.193,374.638,109.194,376.591,107.241z"/><path d="M173.761,162.255c0.827,2.635,3.631,4.101,6.267,3.275c4.858-1.523,10.154-2.25,15.717-2.18    c15.887,0.206,29.087,11.016,31.385,25.701c4.586,29.409-38.914,42.542-39.335,42.666c-19.625,5.662-31.512,0.99-36.337-14.286    c-2.686-8.478-2.27-17.889,1.17-26.501c1.024-2.564-0.224-5.474-2.788-6.498c-2.565-1.025-5.474,0.223-6.498,2.788    c-4.296,10.753-4.799,22.555-1.418,33.227c3.041,9.626,10.988,23.569,31.501,23.567c4.95,0,10.635-0.813,17.156-2.693    c0.523-0.153,12.957-3.832,24.867-11.976c16.605-11.354,24.062-25.821,21.564-41.838c-3.055-19.522-20.355-33.887-41.131-34.157    c-6.617-0.091-12.971,0.795-18.843,2.637C174.401,156.814,172.935,159.62,173.761,162.255z"/><path d="M359.899,223.707c2.631,0.833,5.442-0.624,6.277-3.257c5.645-17.82,0.521-37.465-13.372-51.266    c-10.642-10.578-24.665-16.051-40.579-15.833c-20.781,0.27-38.08,14.634-41.137,34.159c-2.496,16.015,4.96,30.481,21.564,41.835    c11.91,8.144,24.344,11.823,24.867,11.976c0.467,0.136,0.938,0.201,1.402,0.201c2.164,0,4.16-1.418,4.797-3.602    c0.773-2.651-0.749-5.427-3.4-6.2c-0.439-0.128-43.949-13.171-39.35-42.667c2.299-14.688,15.498-25.498,31.39-25.704    c13.337-0.199,24.581,4.165,33.396,12.928c11.225,11.15,15.396,26.919,10.888,41.153    C355.81,220.063,357.267,222.873,359.899,223.707z"/><path d="M254.05,238.113c-3.896,0-7.619,1.675-10.22,4.599c-5.064,5.706-11.862,14.919-15.488,26.404    c-1.556,4.93-1.058,10.375,1.367,14.938c2.407,4.527,6.417,7.818,11.29,9.262c4.041,1.199,8.432,1.807,13.051,1.807    c4.392,0,8.6-0.555,12.516-1.648c5.085-1.432,9.266-4.773,11.771-9.412c2.5-4.627,3.004-9.938,1.42-14.957    c-3.637-11.508-10.432-20.707-15.491-26.396C261.669,239.788,257.945,238.113,254.05,238.113z M269.54,279.307    c-1.209,2.236-3.228,3.85-5.676,4.539c-3.029,0.846-6.332,1.275-9.814,1.275c-3.656,0-7.09-0.469-10.209-1.395    c-2.281-0.676-4.163-2.227-5.301-4.367c-1.191-2.242-1.426-4.811-0.661-7.234c3.096-9.803,9.013-17.797,13.428-22.772    c0.96-1.079,2.131-1.24,2.744-1.24s1.784,0.161,2.744,1.24c4.412,4.961,10.322,12.938,13.428,22.762    C270.983,274.529,270.741,277.082,269.54,279.307z"/><path d="M196.249,426.383c-13.854-2.834-23.909-15.17-23.909-29.332v-73.57c0-2.762-2.239-5-5-5c-1.417,0-2.841-0.055-4.293-0.168    c-0.396-0.027-0.802-0.064-1.198-0.1c-0.262-0.025-0.524-0.059-0.779-0.092c-0.072-0.01-0.144-0.018-0.216-0.023    c-0.253-0.021-0.499-0.051-0.751-0.086c-0.023-0.004-0.041-0.006-0.064-0.008c-0.632-0.084-1.263-0.184-1.895-0.285l-0.324-0.057    c-0.208-0.037-0.414-0.07-0.619-0.113c-0.058-0.014-0.117-0.023-0.175-0.035c-0.454-0.078-0.898-0.176-1.346-0.271    c-3.517-0.756-6.893-1.857-10.11-3.248v-13.943h17.14c2.761,0,5-2.238,5-5v-24c0-2.762-2.239-5-5-5s-5,2.238-5,5v19h-17.14    c-2.761,0-5,2.238-5,5v13.314c-14.262-10.131-23.41-26.811-23.41-45.074V223c0-22.162,4.965-43.39,14.752-63.084    c0.311-0.621,0.631-1.243,0.952-1.864c0.009-0.019,0.019-0.037,0.028-0.055c0-0.001,0.001-0.001,0.001-0.002    c0.158-0.316,0.324-0.639,0.498-0.957l0.125-0.237c0.384-0.721,0.769-1.443,1.142-2.127c0.428-0.768,0.855-1.537,1.293-2.294    c0.001-0.003,0.003-0.005,0.004-0.008c0.02-0.034,0.041-0.07,0.061-0.106c0.002-0.003,0.004-0.005,0.006-0.008    c0.471-0.817,0.941-1.625,1.432-2.432c0.001-0.002,0.001-0.003,0.002-0.005l0.229-0.381c0.088-0.144,0.178-0.287,0.267-0.431    c0.309-0.505,0.618-1.009,0.933-1.508c0.055-0.079,0.106-0.162,0.157-0.244c0.004-0.006,0.009-0.012,0.014-0.019    c0.407-0.65,0.825-1.298,1.248-1.941l0.636-0.959c0.263-0.396,0.526-0.79,0.736-1.101c0.242-0.34,0.473-0.681,0.666-0.966    c0.993-1.424,2.003-2.826,3.008-4.173c0.325-0.436,0.658-0.871,1.033-1.361c0.679-0.889,1.377-1.779,2.148-2.728    c0.292-0.374,0.593-0.749,0.883-1.1c1.675-2.015,3.213-3.788,4.69-5.407l0.976-1.064c0.589-0.636,1.196-1.272,1.811-1.916    c0.602-0.621,1.213-1.242,1.824-1.854c0.675-0.675,1.359-1.34,2.048-2c6.954-6.68,14.608-12.668,22.75-17.798    c2.336-1.472,3.037-4.56,1.565-6.896c-1.473-2.336-4.559-3.037-6.896-1.565c-8.714,5.491-16.905,11.899-24.342,19.043    c-0.736,0.705-1.471,1.419-2.197,2.145c-0.648,0.648-1.297,1.308-2.002,2.037c-0.617,0.646-1.242,1.302-1.862,1.972    c-0.002,0.001-0.004,0.002-0.005,0.004c-0.011,0.011-0.021,0.022-0.031,0.034c-0.006,0.007-0.012,0.013-0.018,0.02l-1,1.09    c-1.591,1.744-3.227,3.629-5.012,5.777c-0.359,0.435-0.718,0.88-1.003,1.248c-0.772,0.95-1.534,1.92-2.31,2.936    c-0.361,0.471-0.721,0.942-1.068,1.408c-1.044,1.398-2.097,2.859-3.166,4.392c-0.002,0.003-0.005,0.005-0.007,0.008    c-0.016,0.023-0.031,0.046-0.048,0.069c-0.004,0.006-0.008,0.012-0.013,0.019c-0.008,0.012-0.018,0.026-0.026,0.038    c-0.208,0.297-0.413,0.595-0.614,0.892c0,0.001,0,0.001-0.001,0.002c-0.283,0.415-0.562,0.833-0.841,1.253l-0.504,0.761    c-0.006,0.01-0.016,0.017-0.022,0.027c-0.046,0.07-0.09,0.142-0.136,0.211l-0.086,0.131c-0.408,0.628-0.819,1.262-1.218,1.896    c-0.04,0.057-0.077,0.114-0.114,0.173c-0.002,0.004-0.006,0.007-0.008,0.011c-0.008,0.013-0.016,0.025-0.024,0.038    c0,0.001-0.001,0.002-0.002,0.004l-0.021,0.033c-0.44,0.697-0.873,1.403-1.327,2.145h0l-0.249,0.414c0,0,0,0,0,0    c-0.001,0.001-0.001,0.003-0.002,0.004l-0.02,0.032c-0.512,0.86-1.024,1.721-1.526,2.591c0,0.001-0.001,0.003-0.002,0.004    c-0.021,0.035-0.042,0.071-0.063,0.108c-0.001,0.002-0.003,0.004-0.004,0.006c-0.462,0.802-0.914,1.613-1.366,2.425    c0,0,0,0,0,0.001c-0.007,0.012-0.013,0.023-0.02,0.036c-0.41,0.751-0.811,1.503-1.211,2.255l-0.234,0.442    c-0.171,0.321-0.342,0.645-0.504,0.974c-0.332,0.643-0.663,1.287-0.99,1.94c-10.486,21.1-15.803,43.826-15.803,67.545v40.291    c0,25.016,14.529,47.521,36.167,58.357c0.13,0.066,0.256,0.137,0.393,0.189c4.654,2.293,9.626,4.057,14.857,5.18    c0.547,0.119,1.095,0.236,1.652,0.334c0.293,0.061,0.587,0.111,0.884,0.164l0.32,0.057c0.033,0.006,0.067,0.012,0.101,0.016    c0.735,0.117,1.471,0.234,2.152,0.322c0.407,0.059,0.802,0.105,1.207,0.143c0.333,0.043,0.676,0.084,1.034,0.117    c0.48,0.043,0.961,0.088,1.392,0.115c0.007,0,0.015,0.002,0.021,0.002v68.764c0,18.891,13.418,35.348,31.905,39.129    c0.338,0.068,0.675,0.102,1.007,0.102c2.326,0,4.409-1.631,4.893-3.998C200.699,429.578,198.955,426.936,196.249,426.383z"/><path d="M227.875,83.519c8.573-1.598,17.379-2.409,26.175-2.409c15.9,0,31.399,2.609,46.021,7.607l-15.703,9.984    c-1.222,0.776-2.046,2.044-2.262,3.475c-0.216,1.431,0.2,2.885,1.138,3.987l7.938,9.315l-24.407,12.48    c-2.458,1.257-3.433,4.27-2.175,6.728c0.884,1.73,2.637,2.725,4.455,2.725c0.766,0,1.544-0.177,2.272-0.549l30.038-15.36    c1.361-0.696,2.33-1.977,2.627-3.477c0.299-1.5-0.105-3.054-1.098-4.218l-8.309-9.753l17.023-10.823    c15.688,6.966,30.128,16.829,42.649,29.317c0.718,0.709,1.427,1.437,2.147,2.188c0.671,0.689,1.322,1.388,1.975,2.087    c0.22,0.248,0.447,0.495,0.667,0.734c0.003,0.004,0.028,0.031,0.048,0.051c0.475,0.522,0.947,1.053,1.427,1.6    c0.64,0.725,1.262,1.442,1.884,2.175c0.04,0.052,0.082,0.103,0.124,0.153c0.597,0.703,1.185,1.416,1.771,2.137    c0.001,0,0.002,0.001,0.002,0.002l0.334,0.414c0.586,0.719,1.153,1.447,1.731,2.203c0.001,0.001,0.002,0.002,0.003,0.003    c0.002,0.003,0.004,0.007,0.007,0.01c0.858,1.105,1.7,2.233,2.526,3.37c0.169,0.231,0.336,0.465,0.504,0.698    c0.797,1.11,1.584,2.228,2.34,3.351c0.578,0.862,1.146,1.724,1.714,2.596c0.002,0.003,0.005,0.006,0.007,0.009    c0.045,0.072,0.092,0.144,0.137,0.212c0.498,0.786,0.986,1.572,1.479,2.373c1.013,1.642,2.055,3.424,3.093,5.289    c0.49,0.886,0.972,1.771,1.443,2.667c0.005,0.008,0.01,0.016,0.014,0.024c0.001,0.003,0.002,0.006,0.003,0.008    c0.467,0.894,0.934,1.789,1.381,2.683l0.18,0.359c0.413,0.826,0.815,1.661,1.212,2.502c8.979,18.984,13.531,39.357,13.531,60.553    v40.291c0,2.359-0.15,4.736-0.447,7.064c-0.35,2.74,1.588,5.244,4.327,5.594c0.215,0.027,0.428,0.039,0.639,0.039    c2.479,0,4.632-1.844,4.954-4.367c0.35-2.746,0.527-5.549,0.527-8.33V223c0-22.686-4.875-44.497-14.487-64.821    c-0.427-0.904-0.864-1.81-1.312-2.705l-0.17-0.342c-0.004-0.005-0.006-0.011-0.01-0.017c0,0,0-0.001,0-0.002    c-0.17-0.341-0.352-0.683-0.527-1.024c-0.307-0.605-0.609-1.214-0.93-1.811c-0.011-0.019-0.02-0.038-0.03-0.056    c-0.001-0.001-0.001-0.003-0.001-0.004c-0.508-0.961-1.023-1.912-1.55-2.861c-0.001-0.001-0.001-0.002-0.002-0.003    c-0.001-0.002-0.002-0.004-0.003-0.007c-0.027-0.048-0.055-0.093-0.081-0.142c-1.036-1.865-2.124-3.728-3.215-5.497    c-0.005-0.008-0.011-0.017-0.016-0.025c-0.003-0.004-0.005-0.009-0.008-0.013c-0.522-0.851-1.045-1.69-1.577-2.53    c-0.049-0.077-0.045-0.071-0.097-0.145l-0.012,0.007c0-0.001-0.001-0.001-0.002-0.002c-0.021-0.035-0.033-0.073-0.056-0.107    l0.004-0.002c-0.006-0.01-0.014-0.019-0.02-0.028c0-0.001-0.001-0.003-0.002-0.004c-0.355-0.546-0.72-1.091-1.08-1.636    c-0.238-0.357-0.47-0.716-0.711-1.075c-0.002-0.003-0.004-0.007-0.007-0.011l-0.001,0c-0.828-1.224-1.668-2.423-2.511-3.598    c-0.179-0.248-0.354-0.494-0.534-0.741c-0.896-1.234-1.795-2.436-2.687-3.584c-0.005-0.007-0.011-0.013-0.015-0.02    c-0.002-0.002-0.004-0.004-0.005-0.006c-0.509-0.664-1.021-1.318-1.521-1.938c-0.12-0.151-0.235-0.296-0.358-0.45l-0.001,0    l-0.325-0.405c-0.008-0.01-0.017-0.02-0.024-0.029c0,0,0,0,0-0.001c-0.053-0.065-0.107-0.127-0.16-0.192    c-0.551-0.683-1.111-1.361-1.678-2.027c-0.044-0.056-0.088-0.112-0.135-0.166c-0.683-0.807-1.365-1.593-2.055-2.374    c-0.003-0.003-0.006-0.006-0.009-0.01c-0.005-0.006-0.011-0.012-0.015-0.018c-0.464-0.529-0.934-1.061-1.44-1.613    c-0.03-0.033-0.06-0.067-0.089-0.1c-0.003-0.003-0.006-0.004-0.009-0.007c-0.022-0.024-0.042-0.047-0.065-0.072    c-0.191-0.209-0.391-0.425-0.582-0.641c-0.028-0.032-0.057-0.063-0.086-0.095c-0.715-0.766-1.428-1.531-2.141-2.264    c-0.762-0.792-1.533-1.584-2.296-2.337c-28.669-28.593-66.758-44.34-107.251-44.34c-9.409,0-18.832,0.868-28.008,2.578    c-2.714,0.506-4.505,3.117-3.999,5.832S225.164,84.028,227.875,83.519z"/><path d="M249.05,363.871v10.689c0,2.762,2.239,5,5,5c2.762,0,5-2.238,5-5v-10.689h14.529v10.689c0,2.762,2.239,5,5,5    c2.762,0,5-2.238,5-5v-10.689h14.531v10.689c0,2.762,2.238,5,5,5c2.761,0,5-2.238,5-5v-10.689h9.449c2.76,0,5-2.24,5-5    s-2.24-5-5-5h-9.449v-10.68c0-2.762-2.239-5-5-5c-2.762,0-5,2.238-5,5v10.68h-14.531v-10.68c0-2.762-2.238-5-5-5    c-2.761,0-5,2.238-5,5v10.68H259.05v-10.68c0-2.762-2.238-5-5-5c-2.761,0-5,2.238-5,5v10.68h-14.53v-10.68c0-2.762-2.239-5-5-5    s-5,2.238-5,5v10.68h-14.53v-10.68c0-2.762-2.239-5-5-5s-5,2.238-5,5v10.68h-9.45c-2.76,0-5,2.24-5,5s2.24,5,5,5h9.45v10.689    c0,2.762,2.239,5,5,5s5-2.238,5-5v-10.689h14.53v10.689c0,2.762,2.239,5,5,5s5-2.238,5-5v-10.689H249.05z"/></g></g></svg>