<?xml version="1.0" ?><svg data-name="Layer 1" id="Layer_1" viewBox="0 0 512 512" xmlns="http://www.w3.org/2000/svg"><title/><path d="M468.1,457.11H418.31V183.79A314.12,314.12,0,0,0,425.4,125l21.12,21.14a5.36,5.36,0,0,0,7.59-7.57l-29.92-29.92a5.52,5.52,0,0,0-7.58,0L386.7,138.58a5.36,5.36,0,0,0,7.58,7.57l20.37-20.38A301.75,301.75,0,0,1,408,180.71a5.43,5.43,0,0,0-.34,1.57,261.92,261.92,0,0,1-49.94,105.39,5.39,5.39,0,0,0-1.86,2.35,303,303,0,0,1-49.38,48.54,5.44,5.44,0,0,0-2.05,1.59A378.34,378.34,0,0,1,255.6,372a5.36,5.36,0,0,0-3.2,1.73c-12,6.5-24,12.24-35.75,17.3a331.54,331.54,0,0,1-65.08,19.84,5.15,5.15,0,0,0-1.18.24,404.41,404.41,0,0,1-78,7.7H49.25v-20C83,392,290.32,338.54,300.26,62.18L326.07,88a5.35,5.35,0,1,0,7.56-7.56L299,45.75a5.35,5.35,0,0,0-7.57,0L256.74,80.41A5.35,5.35,0,0,0,264.32,88l25.2-25.2C279.57,325.57,86.31,379.91,49.25,387.91V61.6a5.35,5.35,0,0,0-10.7,0V462.46a5.35,5.35,0,0,0,5.35,5.36H468.1a5.36,5.36,0,0,0,0-10.71Zm-60.49,0H366.14V294.45a271.26,271.26,0,0,0,41.47-74ZM355.43,307.3V457.11H314V346.37A319.27,319.27,0,0,0,355.43,307.3ZM303.24,457.11H261.76V380.88a395.37,395.37,0,0,0,41.48-26.39Zm-82.35-56.2c9.9-4.27,20-9,30.16-14.29v70.49H209.57V405.49Q215.34,403.29,220.89,400.91Zm-63.51,19.72a362.94,362.94,0,0,0,41.48-11.29v47.77H157.38Zm-10.71,36.48H105.19v-28.9c14-1.14,27.9-3,41.48-5.46ZM49.25,429.55H72.43q11,0,22-.62v28.18H49.25Z"/><path d="M332.36,192.72l-3.23,9.15a.84.84,0,0,0-.05.17l-4.89,13.86a5.35,5.35,0,1,0,10.09,3.55L338,209h20.67l3.68,10.45a5.34,5.34,0,0,0,5,3.58,5.4,5.4,0,0,0,1.79-.31,5.34,5.34,0,0,0,3.26-6.82l-4.86-13.79a3.52,3.52,0,0,0-.15-.42l-14-39.89a5.34,5.34,0,0,0-10.09,0l-10.9,30.92Zm15.95-13,6.55,18.62H341.74l.28-.79.43-1.22a0,0,0,0,0,0,0Z"/><path d="M209,168.5h17.67a18.87,18.87,0,0,0,13.16-32.41,18.85,18.85,0,0,0-13.16-32.39H209a5.36,5.36,0,0,0-5.36,5.35v54.09A5.36,5.36,0,0,0,209,168.5Zm5.35-54.1h12.32a8.17,8.17,0,1,1,0,16.34H214.35Zm0,27h12.32a8.17,8.17,0,1,1,0,16.34H214.35Z"/></svg>